# xmcd
#
# Track frame offsets:
#	150
#	17875
#	34377
#	50320
#	69605
#	86022
#	104342
#	124295
#	143010
#	168787
#	185350
#	206392
#	226455
#
# Disc length: 3350 seconds
#
# Revision: 20
# Processed by: cddbd v1.5.2PL0 Copyright (c) Steve Scherf et al.
# Submitted via: EasyCDDAExtractor 15.3.0.1
#
DISCID=b00d140d
DTITLE=Cristian - Lo Mejor De Mi
DYEAR=1997
DGENRE=Latin
TTITLE0=Lo Mejor De Mi
TTITLE1=Se Mi Aire
TTITLE2=Nadie
TTITLE3=Si Tu Me Amaras
TTITLE4=Llorare
TTITLE5=Amaneciendo En Ti
TTITLE6=Me Tomas, Me Sueltas
TTITLE7=Necesitas Amor
TTITLE8=Sere Para Ti
TTITLE9=Si Acaba Bien
TTITLE10=En Donde Estas Tu
TTITLE11=Lloran Las Rosas
TTITLE12=Despues De Ti... Que (Participacion Especial De Raul Di Blasio)
EXTD=YEAR: 1997 ID3G: 86
EXTT0=
EXTT1=
EXTT2=
EXTT3=
EXTT4=
EXTT5=
EXTT6=
EXTT7=
EXTT8=
EXTT9=
EXTT10=
EXTT11=
EXTT12=
PLAYORDER=
